# Blender v2.82 (sub 7) OBJ File: 'castle.blend'
# www.blender.org
mtllib axe.mtl
o Cube.005_Cube.019
v -0.058244 -0.058244 1.000000
v -0.058244 0.058244 1.000000
v -0.058244 -0.058244 -2.393387
v -0.058244 0.058244 -2.393387
v 0.058244 -0.058244 1.000000
v 0.058244 0.058244 1.000000
v 0.058244 -0.058244 -2.393387
v 0.058244 0.058244 -2.393387
v -0.058244 0.058244 -2.782472
v -0.058244 -0.058244 -2.782472
v 0.058244 -0.058244 -2.782472
v 0.058244 0.058244 -2.782472
v 0.040759 -0.600871 -2.393387
v -0.040759 -0.600871 -2.393387
v 0.040759 -0.600871 -2.782472
v -0.040759 -0.600871 -2.782472
v 0.029306 -0.687686 -2.269726
v -0.029306 -0.687686 -2.269726
v 0.029306 -0.820404 -2.777536
v -0.029306 -0.820404 -2.777536
v 0.000000 -0.719279 -2.105293
v 0.000000 -0.719279 -2.105293
v 0.000000 -0.976446 -2.741700
v 0.000000 -0.976446 -2.741700
v 0.058244 0.058244 -2.523082
v 0.058244 0.058244 -2.652777
v -0.058244 0.058244 -2.652777
v -0.058244 0.058244 -2.523082
v -0.058244 -0.058244 -2.652777
v -0.058244 -0.058244 -2.523082
v 0.058244 -0.058244 -2.523082
v 0.058244 -0.058244 -2.652777
v -0.040759 -0.600871 -2.652777
v -0.040759 -0.600871 -2.523082
v 0.040759 -0.600871 -2.523082
v 0.040759 -0.600871 -2.652777
v -0.029306 -0.791375 -2.651131
v -0.029306 -0.762346 -2.524727
v 0.029306 -0.762346 -2.524727
v 0.029306 -0.791375 -2.651132
v 0.000000 -0.930824 -2.548923
v 0.000000 -0.843719 -2.281477
v 0.000000 -0.843719 -2.281477
v 0.000000 -0.930824 -2.548923
vt 0.375000 0.000000
vt 0.625000 0.000000
vt 0.625000 0.250000
vt 0.375000 0.250000
vt 0.875000 0.500000
vt 0.625000 0.500000
vt 0.625000 0.500000
vt 0.875000 0.500000
vt 0.375000 0.500000
vt 0.625000 0.500000
vt 0.625000 0.750000
vt 0.375000 0.750000
vt 0.625000 1.000000
vt 0.375000 1.000000
vt 0.125000 0.500000
vt 0.125000 0.750000
vt 0.875000 0.500000
vt 0.875000 0.750000
vt 0.375000 0.250000
vt 0.625000 0.250000
vt 0.375000 0.500000
vt 0.375000 0.250000
vt 0.625000 0.250000
vt 0.375000 0.500000
vt 0.375000 0.500000
vt 0.375000 0.500000
vt 0.375000 0.500000
vt 0.375000 0.500000
vt 0.375000 0.500000
vt 0.125000 0.500000
vt 0.375000 0.500000
vt 0.375000 0.250000
vt 0.375000 0.250000
vt 0.375000 0.250000
vt 0.375000 0.250000
vt 0.375000 0.250000
vt 0.375000 0.250000
vt 0.375000 0.500000
vt 0.125000 0.500000
vt 0.375000 0.500000
vt 0.125000 0.500000
vt 0.125000 0.500000
vt 0.375000 0.500000
vt 0.125000 0.500000
vt 0.375000 0.500000
vt 0.375000 0.500000
vt 0.375000 0.500000
vt 0.125000 0.500000
vt 0.375000 0.250000
vt 0.375000 0.250000
vt 0.375000 0.250000
vt 0.375000 0.250000
vt 0.375000 0.250000
vt 0.375000 0.250000
vt 0.375000 0.250000
vt 0.375000 0.500000
vt 0.625000 0.500000
vt 0.625000 0.250000
vt 0.875000 0.500000
vn -1.0000 0.0000 0.0000
vn 0.0000 1.0000 0.0000
vn 1.0000 0.0000 0.0000
vn 0.0000 0.0000 1.0000
vn 0.0000 -1.0000 0.0000
vn 0.0000 0.0000 -1.0000
vn 0.9995 -0.0322 0.0000
vn 0.9963 -0.0839 0.0163
vn -0.9995 -0.0322 0.0000
vn -0.9836 -0.1759 0.0411
vn 0.0000 -0.0225 -0.9997
vn -0.9984 -0.0557 0.0063
vn 0.0000 0.8184 0.5746
vn 0.0000 0.9820 0.1887
vn 0.9778 -0.1903 0.0879
vn 0.0000 -0.2238 -0.9746
vn 0.9836 -0.1759 0.0411
vn 0.9825 -0.1785 0.0526
vn -0.9963 -0.0839 0.0163
vn -0.9979 -0.0649 0.0074
vn -0.9778 -0.1903 0.0879
vn -0.9825 -0.1785 0.0526
vn 0.9984 -0.0557 0.0063
vn 0.9979 -0.0649 0.0074
usemtl None
s off
f 1/1/1 2/2/1 4/3/1 3/4/1
f 27/5/2 26/6/2 12/7/2 9/8/2
f 7/9/3 8/10/3 6/11/3 5/12/3
f 5/12/4 6/11/4 2/13/4 1/14/4
f 3/15/5 7/9/5 5/12/5 1/16/5
f 8/10/2 4/17/2 2/18/2 6/11/2
f 10/19/6 9/20/6 12/7/6 11/21/6
f 29/22/1 27/23/1 9/20/1 10/19/1
f 26/6/3 32/24/3 11/21/3 12/7/3
f 31/25/7 7/9/7 13/26/7 35/27/7
f 35/27/8 13/26/8 17/28/8 39/29/8
f 7/9/4 3/15/4 14/30/4 13/26/4
f 10/19/6 11/21/6 15/31/6 16/32/6
f 29/22/9 10/19/9 16/32/9 33/33/9
f 37/34/10 20/35/10 24/36/10 41/37/10
f 16/32/11 15/31/11 19/38/11 20/35/11
f 33/33/12 16/32/12 20/35/12 37/34/12
f 13/26/13 14/30/13 18/39/13 17/28/13
f 44/40/4 41/41/4 24/42/4 23/43/4
f 17/28/14 18/39/14 22/44/14 21/45/14
f 39/29/15 17/28/15 21/45/15 43/46/15
f 20/35/16 19/38/16 23/43/16 24/36/16
f 19/38/17 40/47/17 44/40/17 23/43/17
f 40/47/18 39/29/18 43/46/18 44/40/18
f 21/45/4 22/44/4 42/48/4 43/46/4
f 43/46/4 42/48/4 41/41/4 44/40/4
f 14/49/19 34/50/19 38/51/19 18/52/19
f 34/50/20 33/33/20 37/34/20 38/51/20
f 18/52/21 38/51/21 42/53/21 22/54/21
f 38/51/22 37/34/22 41/37/22 42/53/22
f 3/4/9 30/55/9 34/50/9 14/49/9
f 30/55/9 29/22/9 33/33/9 34/50/9
f 15/31/23 36/56/23 40/47/23 19/38/23
f 36/56/24 35/27/24 39/29/24 40/47/24
f 11/21/7 32/24/7 36/56/7 15/31/7
f 32/24/7 31/25/7 35/27/7 36/56/7
f 8/10/3 7/9/3 31/25/3 25/57/3
f 25/57/3 31/25/3 32/24/3 26/6/3
f 3/4/1 4/3/1 28/58/1 30/55/1
f 30/55/1 28/58/1 27/23/1 29/22/1
f 4/17/2 8/10/2 25/57/2 28/59/2
f 28/59/2 25/57/2 26/6/2 27/5/2
