# Blender v2.82 (sub 7) OBJ File: ''
# www.blender.org
mtllib tiki_torch.mtl
o Cylinder
v -0.000000 0.000000 -0.044307
v -0.000000 1.081750 -0.044307
v 0.034641 0.000000 -0.027625
v 0.034641 1.081750 -0.027625
v 0.043196 0.000000 0.009859
v 0.043196 1.081750 0.009859
v 0.019224 0.000000 0.039919
v 0.019224 1.081750 0.039919
v -0.019224 0.000000 0.039919
v -0.019224 1.081750 0.039919
v -0.043196 0.000000 0.009859
v -0.043196 1.081750 0.009859
v -0.034641 0.000000 -0.027625
v -0.034641 1.081750 -0.027625
v -0.000000 1.131573 -0.066391
v 0.051906 1.131573 -0.041394
v 0.064726 1.131573 0.014773
v 0.028806 1.131573 0.059816
v -0.028806 1.131573 0.059816
v -0.064726 1.131573 0.014773
v -0.051906 1.131573 -0.041394
v -0.000000 1.172362 -0.066391
v 0.051906 1.172362 -0.041394
v 0.064726 1.172362 0.014773
v 0.028806 1.172362 0.059816
v -0.028806 1.172362 0.059816
v -0.064726 1.172362 0.014773
v -0.051906 1.172362 -0.041394
v -0.000000 1.129290 -0.042134
v 0.032942 1.129290 -0.026270
v 0.041078 1.129290 0.009376
v 0.018281 1.129290 0.037962
v -0.018281 1.129290 0.037962
v -0.041078 1.129290 0.009376
v -0.032942 1.129290 -0.026270
vt 1.000000 0.500000
vt 1.000000 1.000000
vt 0.857143 1.000000
vt 0.857143 0.500000
vt 0.714286 1.000000
vt 0.714286 0.500000
vt 0.571429 1.000000
vt 0.571429 0.500000
vt 0.428571 1.000000
vt 0.428571 0.500000
vt 0.285714 1.000000
vt 0.285714 0.500000
vt 0.571429 1.000000
vt 0.428571 1.000000
vt 0.142857 1.000000
vt 0.142857 0.500000
vt 0.000000 1.000000
vt 0.000000 0.500000
vt 0.750000 0.490000
vt 0.937640 0.399638
vt 0.983983 0.196595
vt 0.854132 0.033767
vt 0.645868 0.033767
vt 0.516017 0.196595
vt 0.562360 0.399638
vt 0.571429 1.000000
vt 0.428571 1.000000
vt 0.142857 1.000000
vt 0.000000 1.000000
vt 0.857143 1.000000
vt 0.714286 1.000000
vt 0.285714 1.000000
vt 1.000000 1.000000
vt 0.857143 1.000000
vt 1.000000 1.000000
vt 1.000000 1.000000
vt 0.857143 1.000000
vt 0.714286 1.000000
vt 0.142857 1.000000
vt 0.000000 1.000000
vt 0.285714 1.000000
vt 0.437640 0.399638
vt 0.250000 0.490000
vt 0.062360 0.399638
vt 0.016017 0.196595
vt 0.145868 0.033767
vt 0.354132 0.033767
vt 0.483983 0.196595
vt 0.285714 1.000000
vt 0.142857 1.000000
vt 0.571429 1.000000
vt 0.428571 1.000000
vt 0.714286 1.000000
vt 0.000000 1.000000
vn 0.4339 0.0000 -0.9010
vn 0.9749 0.0000 -0.2225
vn 0.7818 0.0000 0.6235
vn 0.0000 0.0000 1.0000
vn -0.7818 0.0000 0.6235
vn 0.0000 -0.3709 0.9287
vn -0.9749 0.0000 -0.2225
vn -0.4339 0.0000 -0.9010
vn 0.0000 -1.0000 0.0000
vn -0.4029 -0.3709 -0.8367
vn 0.9054 -0.3709 -0.2067
vn -0.7261 -0.3709 0.5790
vn 0.4029 -0.3709 -0.8367
vn 0.7261 -0.3709 0.5790
vn -0.9054 -0.3709 -0.2067
vn -0.3869 0.4525 0.8035
vn 0.0000 1.0000 -0.0000
vn 0.8694 0.4525 0.1984
vn 0.0000 0.4525 -0.8918
vn -0.8694 0.4525 0.1984
vn 0.3869 0.4525 0.8035
vn 0.6972 0.4525 -0.5560
vn -0.6972 0.4525 -0.5560
usemtl None
s off
f 1/1/1 2/2/1 4/3/1 3/4/1
f 3/4/2 4/3/2 6/5/2 5/6/2
f 5/6/3 6/5/3 8/7/3 7/8/3
f 7/8/4 8/7/4 10/9/4 9/10/4
f 9/10/5 10/9/5 12/11/5 11/12/5
f 10/9/6 8/7/6 18/13/6 19/14/6
f 11/12/7 12/11/7 14/15/7 13/16/7
f 13/16/8 14/15/8 2/17/8 1/18/8
f 1/19/9 3/20/9 5/21/9 7/22/9 9/23/9 11/24/9 13/25/9
f 19/14/4 18/13/4 25/26/4 26/27/4
f 2/17/10 14/15/10 21/28/10 15/29/10
f 6/5/11 4/3/11 16/30/11 17/31/11
f 12/11/12 10/9/12 19/14/12 20/32/12
f 4/3/13 2/2/13 15/33/13 16/30/13
f 8/7/14 6/5/14 17/31/14 18/13/14
f 14/15/15 12/11/15 20/32/15 21/28/15
f 23/34/16 22/35/16 29/36/16 30/37/16
f 17/31/2 16/30/2 23/34/2 24/38/2
f 15/29/8 21/28/8 28/39/8 22/40/8
f 20/32/5 19/14/5 26/27/5 27/41/5
f 18/13/3 17/31/3 24/38/3 25/26/3
f 16/30/1 15/33/1 22/35/1 23/34/1
f 21/28/7 20/32/7 27/41/7 28/39/7
f 30/42/17 29/43/17 35/44/17 34/45/17 33/46/17 32/47/17 31/48/17
f 28/39/18 27/41/18 34/49/18 35/50/18
f 26/27/19 25/26/19 32/51/19 33/52/19
f 24/38/20 23/34/20 30/37/20 31/53/20
f 22/40/21 28/39/21 35/50/21 29/54/21
f 27/41/22 26/27/22 33/52/22 34/49/22
f 25/26/23 24/38/23 31/53/23 32/51/23
