# Blender v2.82 (sub 7) OBJ File: 'tree_area.blend'
# www.blender.org
mtllib tree_area.mtl
o Plane
v 9.000023 0.000000 69.000000
v -8.999977 0.000000 69.000000
v 9.000036 0.000000 110.488312
v -8.999964 0.000000 110.488312
v 19.973482 0.000000 50.551846
v 25.539753 0.000000 110.488304
v 52.734840 0.000000 46.257870
v 58.301113 0.000000 110.488297
v 19.973465 0.000000 0.455583
v 52.734825 0.000000 -3.838396
v 5.400022 0.000000 69.000000
v 0.686948 0.000000 69.000000
v -0.686904 0.000000 69.000000
v -5.399978 0.000000 69.000000
v -5.399963 0.000000 110.488312
v -0.686890 0.000000 110.488312
v 0.686962 0.000000 110.488312
v 5.400036 0.000000 110.488312
v -17.216829 0.000000 57.337383
v -18.144520 0.000000 110.223259
v -46.638443 0.000000 56.277157
v -47.566135 0.000000 109.163025
v -18.409616 0.000000 -0.445596
v -47.831230 0.000000 -1.505828
vt 0.800000 0.000000
vt 1.000000 0.000000
vt 1.000000 1.000000
vt 0.800000 1.000000
vt 0.000000 0.000000
vt 0.000000 1.000000
vt 0.000000 1.000000
vt 0.000000 0.000000
vt 0.000000 1.000000
vt 0.000000 0.000000
vt 0.000000 0.000000
vt 0.000000 0.000000
vt 0.200000 0.000000
vt 0.200000 1.000000
vt 1.000000 1.000000
vt 1.000000 0.000000
vt 1.000000 0.000000
vt 1.000000 1.000000
vt 0.400000 0.000000
vt 0.600000 0.000000
vt 0.600000 1.000000
vt 0.400000 1.000000
vt 1.000000 0.000000
vt 1.000000 0.000000
vn 0.0000 1.0000 0.0000
usemtl None
s off
f 14/1/1 2/2/1 4/3/1 15/4/1
f 1/5/1 3/6/1 6/7/1 5/8/1
f 5/8/1 6/7/1 8/9/1 7/10/1
f 5/8/1 7/10/1 10/11/1 9/12/1
f 1/5/1 11/13/1 18/14/1 3/6/1
f 20/15/1 19/16/1 21/17/1 22/18/1
f 12/19/1 13/20/1 16/21/1 17/22/1
f 4/3/1 2/2/1 19/16/1 20/15/1
f 21/17/1 19/16/1 23/23/1 24/24/1
