# Blender v2.82 (sub 7) OBJ File: 'castle.blend'
# www.blender.org
mtllib torch.mtl
o Cube.001_Cube.006
v -0.097770 0.036283 0.183850
v -0.097770 1.313296 -0.271115
v -0.097770 -0.029342 -0.000349
v -0.097770 1.247671 -0.455314
v 0.097770 0.036283 0.183850
v 0.097770 1.313296 -0.271115
v 0.097770 -0.029342 -0.000349
v 0.097770 1.247671 -0.455314
v -0.097770 1.214430 -0.235892
v -0.097770 1.148805 -0.420091
v 0.097770 1.148805 -0.420091
v 0.097770 1.214430 -0.235892
v -0.187573 1.365793 -0.194486
v -0.187573 1.464658 -0.229709
v -0.187573 1.338756 -0.583097
v 0.187573 1.338756 -0.583097
v 0.187573 1.464658 -0.229709
v -0.187573 1.239890 -0.547873
v 0.187573 1.239890 -0.547873
v 0.187573 1.365793 -0.194486
v 0.222763 1.545966 -0.694277
v 0.116112 1.437793 -0.542521
v -0.116112 1.515730 -0.323765
v -0.116112 1.437793 -0.542521
v 0.116112 1.515730 -0.323765
v 0.222763 1.695488 -0.274591
v -0.222763 1.695488 -0.274591
v -0.222763 1.545966 -0.694277
vt 0.875000 0.750000
vt 0.875000 0.500000
vt 0.875000 0.500000
vt 0.875000 0.750000
vt 0.605645 0.750000
vt 0.605645 0.500000
vt 0.605645 0.500000
vt 0.605645 0.750000
vt 0.625000 1.000000
vt 0.625000 0.750000
vt 0.625000 0.750000
vt 0.625000 1.000000
vt 0.605645 0.250000
vt 0.605645 0.000000
vt 0.605645 0.000000
vt 0.605645 0.250000
vt 0.125000 0.500000
vt 0.375000 0.500000
vt 0.375000 0.750000
vt 0.125000 0.750000
vt 0.625000 0.500000
vt 0.625000 0.750000
vt 0.605645 1.000000
vt 0.375000 1.000000
vt 0.375000 0.250000
vt 0.375000 0.000000
vt 0.625000 0.000000
vt 0.625000 0.250000
vt 0.625000 0.500000
vt 0.605645 1.000000
vt 0.625000 0.750000
vt 0.625000 0.500000
vt 0.625000 0.000000
vt 0.625000 0.250000
vt 0.875000 0.500000
vt 0.875000 0.750000
vt 0.625000 0.500000
vn 0.9961 0.0826 -0.0294
vn 0.8201 -0.5391 0.1921
vn 0.0000 0.1909 0.9816
vn -0.8201 -0.5391 0.1921
vn 0.0000 -0.9420 0.3356
vn 0.0000 0.9420 -0.3356
vn 0.0000 0.3356 0.9420
vn 1.0000 0.0000 0.0000
vn 0.0000 -0.3356 -0.9420
vn -1.0000 0.0000 0.0000
vn -0.9961 0.0826 -0.0294
vn 0.0000 -0.8143 -0.5804
vn 0.0000 -0.2639 0.9646
vn -0.9887 -0.1410 0.0502
vn 0.8201 0.5391 -0.1921
vn -0.8201 0.5391 -0.1921
vn 0.0000 0.2639 -0.9646
vn 0.0000 0.8143 0.5804
vn 0.0000 -0.4728 -0.8812
vn 0.0000 -0.2517 -0.9678
vn 0.0000 0.4169 0.9089
vn 0.9887 -0.1410 0.0502
usemtl None
s off
f 2/1/1 4/2/1 24/3/1 23/4/1
f 12/5/2 11/6/2 19/7/2 20/8/2
f 14/9/3 17/10/3 26/11/3 27/12/3
f 10/13/4 9/14/4 13/15/4 18/16/4
f 3/17/5 7/18/5 5/19/5 1/20/5
f 8/21/6 4/2/6 2/1/6 6/22/6
f 5/19/7 12/5/7 9/23/7 1/24/7
f 7/18/8 11/6/8 12/5/8 5/19/8
f 3/25/9 10/13/9 11/6/9 7/18/9
f 1/26/10 9/14/10 10/13/10 3/25/10
f 13/15/10 14/27/10 15/28/10 18/16/10
f 18/16/9 15/28/9 16/29/9 19/7/9
f 19/7/8 16/29/8 17/10/8 20/8/8
f 20/8/7 17/10/7 14/9/7 13/30/7
f 8/21/11 6/22/11 25/31/11 22/32/11
f 11/6/12 10/13/12 18/16/12 19/7/12
f 9/23/13 12/5/13 20/8/13 13/30/13
f 15/28/14 14/27/14 27/33/14 28/34/14
f 23/4/15 24/3/15 28/35/15 27/36/15
f 22/32/16 25/31/16 26/11/16 21/37/16
f 25/31/17 23/4/17 27/36/17 26/11/17
f 24/3/18 22/32/18 21/37/18 28/35/18
f 16/29/19 15/28/19 28/34/19 21/37/19
f 6/22/20 2/1/20 23/4/20 25/31/20
f 4/2/21 8/21/21 22/32/21 24/3/21
f 17/10/22 16/29/22 21/37/22 26/11/22
